PathFileType	4	(X/Y/Z)	5_coords_data.trc
DataRate	CameraRate	NumFrames	NumMarkers	Units	OrigDataRate	OrigDataStartFrame	OrigNumFrames
30.0	30.0	6	21	m	30.0	30	68
Frame#	Time	THUMB_TIP	THUMB_IP	THUMB_MCP	THUMB_CMC	INDEX_TIP	INDEX_DIP	INDEX_PIP	INDEX_MCP	MIDDLE_TIP	MIDDLE_DIP	MIDDLE_PIP	MIDDLE_MCP	RING_TIP	RING_DIP	RING_PIP	RING_MCP	PINKY_TIP	PINKY_DIP	PINKY_PIP	PINKY_MCP	WRIST
X1	Y1	Z1	X2	Y2	Z2	X3	Y3	Z3	X4	Y4	Z4	X5	Y5	Z5	X6	Y6	Z6	X7	Y7	Z7	X8	Y8	Z8	X9	Y9	Z9	X10	Y10	Z10	X11	Y11	Z11	X12	Y12	Z12	X13	Y13	Z13	X14	Y14	Z14	X15	Y15	Z15	X16	Y16	Z16	X17	Y17	Z17	X18	Y18	Z18	X19	Y19	Z19	X20	Y20	Z20	X21	Y21	Z21
29	0.9666666666666667	-0.04894029998779297	-0.12221299743652343	1.04352001953125	-0.071402099609375	-0.12151999664306641	1.0479599609375	-0.08851349639892578	-0.10152200317382812	1.0482900390625	-0.0796156997680664	-0.07258660125732422	1.0542099609375	-0.05356560134887695	-0.1735449981689453	0.9935859985351563	-0.05840589904785156	-0.15344400024414062	0.9946959838867188	-0.06277830123901368	-0.13098599243164064	0.9952730102539062	-0.06686019897460938	-0.09101419830322266	1.0016599731445313	-0.07010959625244141	-0.09670999908447266	1.0483399658203125	-0.06175870132446289	-0.10826799774169922	1.04	-0.04970050048828125	-0.12118000030517578	1.0240699462890626	-0.04676110076904297	-0.08524579620361328	1.0014000244140624	-0.05830289840698242	-0.09510299682617188	1.0626500244140624	-0.049213901519775394	-0.10649199676513672	1.0480899658203124	-0.032871200561523435	-0.11803500366210938	1.029219970703125	-0.030197099685668947	-0.08194519805908203	1.01327001953125	0.0019115999937057491	-0.13701100158691407	1.001489990234375	-0.005342309951782227	-0.12028900146484375	1.00977001953125	-0.013255399703979492	-0.10521700286865235	1.0176199951171876	-0.02400040054321289	-0.08254779815673828	1.031760009765625	-0.06815609741210937	-0.036909400939941404	1.0691099853515624
30	1.0	-0.04913869857788086	-0.12210199737548828	1.04368994140625	-0.07159519958496094	-0.1214020004272461	1.0478900146484376	-0.08871980285644532	-0.1013249969482422	1.0484100341796876	-0.0797354965209961	-0.07254139709472657	1.054199951171875	-0.053742599487304685	-0.1735030059814453	0.9936510009765624	-0.05859280014038086	-0.15339199829101563	0.9947329711914062	-0.0629556007385254	-0.13085099792480467	0.9952730102539062	-0.06694229888916016	-0.09096900177001953	1.0016900024414062	-0.07033200073242188	-0.09663459777832031	1.047760009765625	-0.0615192985534668	-0.10843099975585938	1.0405699462890625	-0.04991590118408203	-0.12113400268554687	1.0241800537109376	-0.04686149978637695	-0.08514459991455078	1.00152001953125	-0.058300098419189456	-0.09470339965820312	1.0626300048828126	-0.04923080062866211	-0.10630300140380859	1.0481400146484374	-0.033026199340820316	-0.11783499908447266	1.0293599853515625	-0.03033810043334961	-0.08192469787597656	1.0131400146484375	0.001704730033874511	-0.1370229949951172	1.0015399780273437	-0.005505980014801026	-0.12034400177001953	1.009780029296875	-0.013435600280761718	-0.10519300079345703	1.0176300048828124	-0.024111799240112305	-0.082535400390625	1.0316400146484375	-0.06817829895019531	-0.036976799011230466	1.0689599609375
31	1.0333333333333334	-0.04920560073852539	-0.12191500091552734	1.0438699951171875	-0.07168340301513672	-0.12140499877929688	1.0479100341796874	-0.08886949920654297	-0.10135500335693359	1.04806005859375	-0.0800427017211914	-0.07252439880371093	1.054280029296875	-0.05402909851074219	-0.17349400329589842	0.9937760009765625	-0.058829200744628905	-0.15333900451660157	0.9947969970703125	-0.06316590118408204	-0.13087899780273438	0.9953090209960938	-0.06710890197753906	-0.09092310333251953	1.0016599731445313	-0.06999459838867188	-0.09651200103759766	1.047719970703125	-0.062081901550292966	-0.10812599945068359	1.040050048828125	-0.05012210083007813	-0.12109400177001953	1.0240699462890626	-0.047044601440429684	-0.08501899719238282	1.001469970703125	-0.05856489944458008	-0.09453929901123047	1.062780029296875	-0.049549198150634764	-0.10636900329589843	1.0479300537109375	-0.03316120147705078	-0.11780799865722656	1.0293199462890625	-0.0305093994140625	-0.08187760162353516	1.0131400146484375	0.001472560048103332	-0.13703300476074218	1.0015599975585938	-0.005725369930267334	-0.12033799743652343	1.00975	-0.013599800109863282	-0.10521299743652343	1.0175599975585938	-0.02426919937133789	-0.08253119659423828	1.0316700439453126	-0.06838510131835937	-0.036879901885986326	1.0688900146484375
32	1.0666666666666667	-0.049394100189208985	-0.12191000366210937	1.0436500244140625	-0.07187819671630859	-0.12130300140380859	1.0475899658203125	-0.08897699737548828	-0.10129199981689453	1.04797998046875	-0.08011039733886718	-0.07247720336914062	1.0541700439453126	-0.05415169906616211	-0.1734720001220703	0.9937670288085938	-0.05894779968261719	-0.15325199890136718	0.9947869873046875	-0.06327740097045899	-0.13077999877929689	0.9952940063476563	-0.06722250366210937	-0.09074040222167969	1.0016099853515625	-0.07054129791259765	-0.09685649871826171	1.04831005859375	-0.06204750061035156	-0.10800199890136719	1.0404000244140625	-0.050187698364257814	-0.12097000122070313	1.023969970703125	-0.04720640182495117	-0.08503919982910156	1.00127001953125	-0.057865001678466796	-0.09396309661865235	1.0604100341796876	-0.04965370178222656	-0.10619999694824218	1.0478699951171875	-0.03324089813232422	-0.11779199981689453	1.0291400146484375	-0.030645000457763673	-0.08175959777832031	1.013030029296875	0.0013552000522613521	-0.1369290008544922	1.001469970703125	-0.0058393201828002925	-0.12023200225830079	1.0096900024414062	-0.013723699569702149	-0.10508899688720703	1.017469970703125	-0.02436960029602051	-0.0824021987915039	1.031489990234375	-0.06854689788818359	-0.0367411003112793	1.0690799560546875
33	1.1	-0.04957490158081055	-0.1218280029296875	1.043510009765625	-0.07198500061035157	-0.1210989990234375	1.04768994140625	-0.08908039855957031	-0.10113999938964843	1.047969970703125	-0.08021970367431641	-0.07228739929199218	1.0541500244140625	-0.054311500549316404	-0.17324099731445314	0.9937999877929687	-0.05905920028686523	-0.15316700744628906	0.9948889770507813	-0.06338560104370117	-0.1306790008544922	0.9953410034179687	-0.06742539978027344	-0.09067739868164063	1.0015900268554687	-0.07002649688720704	-0.09631809997558594	1.0488299560546874	-0.06231439971923828	-0.10789499664306641	1.03972998046875	-0.050401298522949216	-0.1208759994506836	1.0242099609375	-0.047316398620605465	-0.08492669677734375	1.001280029296875	-0.059292999267578125	-0.094535400390625	1.062530029296875	-0.04948920059204102	-0.105822998046875	1.04831005859375	-0.0334286003112793	-0.11775399780273438	1.029010009765625	-0.030716400146484375	-0.08169879913330078	1.01302001953125	0.001148939967155456	-0.1369929962158203	1.0015700073242189	-0.006039259910583496	-0.12020800018310547	1.009760009765625	-0.013857500076293945	-0.10504000091552734	1.0175999755859375	-0.02444700050354004	-0.0823490982055664	1.0314200439453125	-0.06867759704589843	-0.036640098571777344	1.068989990234375
34	1.1333333333333333	-0.049747501373291016	-0.1219489974975586	1.0435699462890624	-0.072268798828125	-0.12122799682617187	1.047449951171875	-0.08901390075683593	-0.10110399627685547	1.0479599609375	-0.08025460052490234	-0.07227149963378907	1.05406005859375	-0.05434120178222656	-0.17326800537109374	0.9939970092773438	-0.059122200012207034	-0.15310899353027344	0.9949580078125	-0.06345050048828126	-0.13061099243164062	0.9953880004882812	-0.06744850158691407	-0.09060279846191406	1.0015999755859375	-0.0703469009399414	-0.09645680236816406	1.0491300048828125	-0.062047000885009765	-0.10803800201416015	1.0403199462890624	-0.05050579833984375	-0.12081800079345703	1.024239990234375	-0.04737850189208984	-0.08493419647216797	1.001239990234375	-0.05880289840698242	-0.09483200073242187	1.0626099853515625	-0.04965599822998047	-0.10583699798583984	1.04827001953125	-0.033401798248291016	-0.11774500274658203	1.0291099853515624	-0.030753400802612303	-0.08165049743652343	1.0130999755859376	0.001015570044517517	-0.13701600646972656	1.0016599731445313	-0.006104990005493164	-0.12023600006103516	1.0097899780273438	-0.013941800117492676	-0.10501899719238281	1.0175700073242187	-0.024539199829101563	-0.08226419830322265	1.0314000244140624	-0.06854080200195313	-0.03656389999389648	1.06868994140625
